<?xml version="1.0" standalone="no"?>
<!DOCTYPE svg PUBLIC "-//W3C//DTD SVG 20010904//EN"
 "http://www.w3.org/TR/2001/REC-SVG-20010904/DTD/svg10.dtd">
<svg version="1.0" xmlns="http://www.w3.org/2000/svg"
 width="512.000000pt" height="512.000000pt" viewBox="0 0 512.000000 512.000000"
 preserveAspectRatio="xMidYMid meet">

<g transform="translate(0.000000,512.000000) scale(0.100000,-0.100000)"
fill="#000000" stroke="none">
<path d="M2380 5110 c-1105 -80 -2032 -858 -2300 -1929 -123 -493 -94 -1025
82 -1505 43 -119 155 -356 168 -356 4 0 23 24 41 53 20 32 390 411 979 1002
521 523 957 964 968 981 12 17 35 84 53 150 39 148 60 205 103 277 73 121 186
226 306 283 94 45 332 135 400 151 95 22 265 20 364 -6 139 -37 249 -98 339
-188 l48 -48 -103 -7 c-139 -11 -203 -30 -250 -78 -33 -32 -38 -44 -38 -82 0
-61 33 -93 97 -93 40 0 49 4 80 40 l34 40 145 5 144 5 14 -36 c36 -90 50 -166
50 -274 -1 -132 -20 -216 -75 -331 -74 -153 -192 -269 -349 -345 -147 -71
-205 -101 -210 -108 -3 -4 -27 -23 -55 -43 -27 -20 -308 -295 -624 -612 l-574
-574 54 -60 c209 -232 267 -563 148 -849 -90 -214 -291 -392 -514 -454 l-60
-16 110 -26 c414 -97 828 -96 1226 3 914 229 1628 942 1859 1859 52 209 72
380 72 621 0 241 -20 412 -72 621 -255 1009 -1089 1762 -2115 1908 -164 23
-396 32 -545 21z"/>
</g>
</svg>
